<svg width="24" height="24" viewBox="0 0 24 24" fill="none" xmlns="http://www.w3.org/2000/svg">
<path d="M7.00918 18.0102C6.71634 18.303 6.24154 18.303 5.9487 18.0102C5.65585 17.7173 5.65585 17.2426 5.9487 16.9497L16.909 5.98938C17.2019 5.69653 17.6767 5.69653 17.9695 5.98938C18.2624 6.28222 18.2624 6.75701 17.9695 7.04986L7.00918 18.0102Z" fill="#E9E9E9"/>
<path d="M18.0511 16.9501L7.09079 5.98977C6.79794 5.69693 6.32315 5.69693 6.03031 5.98978C5.73746 6.28262 5.73746 6.75741 6.03031 7.05026L16.9906 18.0106C17.2835 18.3034 17.7583 18.3034 18.0511 18.0106C18.344 17.7177 18.344 17.243 18.0511 16.9501Z" fill="#E9E9E9"/>
</svg>
