<svg width="44" height="44" viewBox="0 0 44 44" fill="none" xmlns="http://www.w3.org/2000/svg">
<rect width="44" height="44" rx="22" fill="#042026"/>
<path d="M12.5 20.2145C12.5 20.2145 16.752 15.2501 22 15.2501C27.248 15.2501 31.5 20.2145 31.5 20.2145M30.2045 23.4567C30.2045 23.4567 26.5283 28.2501 21.9971 28.2501C17.4659 28.2501 13.7868 23.4567 13.7868 23.4567C13.7868 23.4567 17.463 18.6606 21.9971 18.6606C26.5312 18.6606 30.2045 23.4567 30.2045 23.4567Z" stroke="#E9E9E9" stroke-width="1.5" stroke-linecap="round" stroke-linejoin="round"/>
<path d="M22 25.8424C23.3807 25.8424 24.5 24.7231 24.5 23.3424C24.5 21.9617 23.3807 20.8424 22 20.8424C20.6193 20.8424 19.5 21.9617 19.5 23.3424C19.5 24.7231 20.6193 25.8424 22 25.8424Z" fill="#E9E9E9"/>
<path d="M31.3246 16.9323L25.5008 20.7499" stroke="#E9E9E9" stroke-width="1.5" stroke-linecap="round"/>
<path d="M18.5013 25.5001L13.5017 28.75" stroke="#E9E9E9" stroke-width="1.5" stroke-linecap="round"/>
</svg>
