<svg width="24" height="26" viewBox="0 0 24 26" fill="none" xmlns="http://www.w3.org/2000/svg">
<path d="M15.7656 4H9.27151C8.89504 4 8.51857 4.18 8.23621 4.45C7.95386 4.72 7.76562 5.08 7.76562 5.44V16.96C7.76562 17.32 7.95386 17.68 8.23621 17.95C8.51857 18.22 8.89504 18.4 9.27151 18.4H18.495C18.8715 18.4 19.248 18.22 19.5303 17.95C19.8127 17.68 20.0009 17.32 20.0009 16.96V8.05001L15.7656 4Z" stroke="#A8DBAB" stroke-width="1.5" stroke-linecap="round" stroke-linejoin="round"/>
<path d="M4 9.04004V20.5601C4 20.9201 4.18824 21.2801 4.47059 21.5501C4.75294 21.8201 5.12941 22.0001 5.50588 22.0001H14.7294" stroke="#A8DBAB" stroke-width="1.5" stroke-linecap="round" stroke-linejoin="round"/>
<path d="M15.293 4V8.50001H19.9989" stroke="#A8DBAB" stroke-width="1.5" stroke-linecap="round" stroke-linejoin="round"/>
</svg>
