<svg width="44" height="44" viewBox="0 0 44 44" fill="none" xmlns="http://www.w3.org/2000/svg">
<rect width="44" height="44" rx="22" fill="#042026"/>
<path d="M12.5664 24.6807C12.5664 25.0949 12.2306 25.4307 11.8164 25.4307C11.4022 25.4307 11.0664 25.0949 11.0664 24.6807L11.0664 21.7598C11.0664 21.3456 11.4022 21.0098 11.8164 21.0098C12.2306 21.0098 12.5664 21.3456 12.5664 21.7598L12.5664 24.6807Z" fill="#E9E9E9"/>
<path d="M32.9297 24.6807C32.9297 25.0949 32.5939 25.4307 32.1797 25.4307C31.7655 25.4307 31.4297 25.0949 31.4297 24.6807L31.4297 21.7598C31.4297 21.3456 31.7655 21.0098 32.1797 21.0098C32.5939 21.0098 32.9297 21.3456 32.9297 21.7598L32.9297 24.6807Z" fill="#E9E9E9"/>
<path d="M22.9297 15.4844L21.4297 15.4844L21.4297 13.2734L22.9297 13.2734L22.9297 15.4844Z" fill="#E9E9E9"/>
<rect x="14.4043" y="16.2334" width="15.1668" height="15.079" rx="1.25" stroke="#E9E9E9" stroke-width="1.5"/>
<path d="M22.1885 11.5C22.8864 11.5 23.4482 12.0621 23.4482 12.75C23.4482 13.4379 22.8864 14 22.1885 14C21.4907 13.9997 20.9297 13.4377 20.9297 12.75C20.9297 12.0623 21.4907 11.5003 22.1885 11.5Z" fill="#E9E9E9" stroke="#E9E9E9"/>
<circle cx="25.3185" cy="22.6677" r="1.16228" fill="#E9E9E9" stroke="#E9E9E9"/>
<circle cx="18.6506" cy="22.6677" r="1.16228" fill="#E9E9E9" stroke="#E9E9E9"/>
</svg>
