<svg width="64" height="64" viewBox="0 0 64 64" fill="none" xmlns="http://www.w3.org/2000/svg">
<rect width="64" height="64" rx="32" fill="#042026"/>
<path d="M32.0003 39.2728C31.7905 39.2728 31.5876 39.2457 31.4184 39.1846C28.8341 38.2961 24.7275 35.142 24.7275 30.4822C24.7275 28.1082 26.6421 26.1819 28.9965 26.1819C30.1398 26.1819 31.2087 26.6296 32.0003 27.4299C32.7918 26.6296 33.8607 26.1819 35.0041 26.1819C37.3584 26.1819 39.273 28.115 39.273 30.4822C39.273 35.1488 35.1664 38.2961 32.5821 39.1846C32.413 39.2457 32.21 39.2728 32.0003 39.2728ZM28.9965 27.1993C27.2036 27.1993 25.7423 28.6712 25.7423 30.4822C25.7423 35.1149 30.1872 37.6924 31.7499 38.2282C31.8717 38.2689 32.1356 38.2689 32.2573 38.2282C33.8134 37.6924 38.265 35.1217 38.265 30.4822C38.265 28.6712 36.8036 27.1993 35.0108 27.1993C33.9825 27.1993 33.0286 27.6809 32.413 28.5152C32.2235 28.7729 31.7905 28.7729 31.6011 28.5152C30.9719 27.6741 30.0248 27.1993 28.9965 27.1993Z" fill="#E9E9E9" stroke="#E9E9E9" stroke-width="1.01818"/>
<rect x="18.546" y="18.5455" width="26.9091" height="26.9091" rx="3.27273" stroke="#E9E9E9" stroke-width="2.18182"/>
</svg>
