<svg width="64" height="64" viewBox="0 0 64 64" fill="none" xmlns="http://www.w3.org/2000/svg">
<rect width="64" height="64" rx="32" fill="#042026"/>
<rect x="17.962" y="31.1229" width="15.7861" height="15.7861" rx="1.81818" stroke="#E9E9E9" stroke-width="2.18182" stroke-linejoin="round"/>
<circle cx="23.055" cy="36.1454" r="1.23636" fill="#E9E9E9"/>
<circle cx="29.045" cy="36.1454" r="1.23636" fill="#E9E9E9"/>
<circle cx="29.045" cy="42.1348" r="1.23636" fill="#E9E9E9"/>
<circle cx="26.0506" cy="39.1402" r="1.23636" fill="#E9E9E9"/>
<circle cx="23.055" cy="42.1348" r="1.23636" fill="#E9E9E9"/>
<path d="M28.0999 26.7204L31.2064 18.7727C31.8009 17.2518 33.5305 16.518 35.0373 17.1475L44.4444 21.0775C45.9269 21.6968 46.6266 23.4007 46.0072 24.8832L41.9743 34.5365C41.3858 35.9453 39.8082 36.6594 38.3612 36.1719L38.1519 36.1014" stroke="#E9E9E9" stroke-width="2.18182" stroke-linecap="round" stroke-linejoin="round"/>
<circle cx="35.1127" cy="22.8767" r="1.23636" transform="rotate(22.6738 35.1127 22.8767)" fill="#E9E9E9"/>
<circle cx="37.9936" cy="29.8893" r="1.23636" transform="rotate(22.6738 37.9936 29.8893)" fill="#E9E9E9"/>
<circle cx="36.5534" cy="26.3832" r="1.23636" transform="rotate(22.6738 36.5534 26.3832)" fill="#E9E9E9"/>
</svg>
