<svg width="44" height="44" viewBox="0 0 44 44" fill="none" xmlns="http://www.w3.org/2000/svg">
<rect width="44" height="44" rx="22" fill="#042026"/>
<circle cx="22.2727" cy="25.2957" r="7.20436" stroke="#E9E9E9"/>
<path d="M24.5524 27.4307C24.1239 28.263 23.2645 28.8312 22.2743 28.8312C21.284 28.8312 20.4246 28.263 19.9961 27.4307" stroke="#E9E9E9" stroke-linecap="round"/>
<path d="M23.9875 23.5415C24.1993 23.098 24.6434 22.7926 25.1568 22.7926C25.6703 22.7926 26.1143 23.098 26.3262 23.5415" stroke="#E9E9E9" stroke-linecap="round"/>
<path d="M18.386 23.5415C18.5978 23.098 19.0418 22.7926 19.5553 22.7926C20.0688 22.7926 20.5128 23.098 20.7246 23.5415" stroke="#E9E9E9" stroke-linecap="round"/>
<path d="M15.8438 12.6924C16.0732 13.1504 16.3855 13.6571 16.7871 14.0205C17.1491 14.3479 17.6477 14.6162 18.0967 14.8193C18.184 14.8589 18.2719 14.8959 18.3574 14.9316C18.2659 14.9751 18.1718 15.0195 18.0781 15.0674C17.6284 15.2972 17.1324 15.5941 16.7754 15.9385C16.3838 16.3163 16.0742 16.8337 15.8447 17.3008C15.7903 17.4116 15.7388 17.5215 15.6914 17.6289C15.6378 17.5186 15.5806 17.4051 15.5195 17.291C15.2701 16.8252 14.9424 16.3125 14.5469 15.9365C14.2036 15.6103 13.7325 15.315 13.3076 15.082C13.2101 15.0285 13.1129 14.9781 13.0186 14.9297C13.1072 14.8896 13.1987 14.8481 13.29 14.8037C13.7141 14.5979 14.1866 14.3318 14.5342 14.0234C14.9411 13.6623 15.2723 13.1592 15.5215 12.7021C15.5823 12.5907 15.6382 12.4793 15.6914 12.3711C15.7385 12.4764 15.7895 12.5841 15.8438 12.6924Z" stroke="#E9E9E9" stroke-linejoin="round"/>
<path d="M29.2412 14.3887C29.412 14.719 29.6435 15.0859 29.9434 15.3574C30.2137 15.6021 30.5747 15.8003 30.8975 15.9502C30.9011 15.9519 30.9055 15.9534 30.9092 15.9551C30.8994 15.9602 30.8897 15.9656 30.8799 15.9707C30.5566 16.1397 30.1977 16.3575 29.9316 16.6143C29.6397 16.896 29.4108 17.2703 29.2402 17.6074C29.2266 17.6343 29.2142 17.6617 29.2012 17.6885C29.0003 17.3095 28.7418 16.9042 28.4336 16.6113C28.1749 16.3655 27.8175 16.1393 27.4805 15.9541C27.8129 15.7912 28.1637 15.5895 28.4209 15.3613C28.7239 15.0924 28.9686 14.7288 29.1533 14.3994C29.1703 14.3692 29.1849 14.3378 29.2012 14.3076C29.2145 14.3345 29.2273 14.3618 29.2412 14.3887Z" stroke="#E9E9E9" stroke-linejoin="round"/>
</svg>
