<svg width="44" height="44" viewBox="0 0 44 44" fill="none" xmlns="http://www.w3.org/2000/svg">
<rect width="44" height="44" rx="22" fill="#042026"/>
<path d="M31.8146 28.5938V26.1402C31.8146 24.8387 31.2976 23.5905 30.3773 22.6702C29.457 21.7499 28.2088 21.2329 26.9073 21.2329H17.0928C15.7913 21.2329 14.5431 21.7499 13.6228 22.6702C12.7026 23.5905 12.1855 24.8387 12.1855 26.1402V28.5938" stroke="#E9E9E9" stroke-linecap="round" stroke-linejoin="round"/>
<path d="M21.9992 18.1351C23.9695 18.1351 25.5668 16.5379 25.5668 14.5676C25.5668 12.5973 23.9695 11 21.9992 11C20.0289 11 18.4316 12.5973 18.4316 14.5676C18.4316 16.5379 20.0289 18.1351 21.9992 18.1351Z" stroke="#E9E9E9" stroke-linecap="round" stroke-linejoin="round"/>
<path d="M22.9736 26.3176C23.0886 26.5285 23.2923 26.6766 23.5283 26.7209L25.5293 27.095L24.1309 28.5754C23.9659 28.75 23.8881 28.9896 23.9189 29.2278L24.1807 31.2463L22.3418 30.3743L22.2588 30.3401C22.0904 30.2822 21.9076 30.2823 21.7393 30.3401L21.6562 30.3743L19.8164 31.2463L20.0791 29.2278C20.1099 28.9896 20.0321 28.75 19.8672 28.5754L18.4678 27.095L20.4688 26.7209C20.705 26.6767 20.9094 26.5286 21.0244 26.3176L21.999 24.5305L22.9736 26.3176Z" stroke="#E9E9E9"/>
</svg>
