<svg width="24" height="24" viewBox="0 0 24 24" fill="none" xmlns="http://www.w3.org/2000/svg">
<path d="M18.5 5.5V4.75H19.25V5.5H18.5ZM11.3837 13.6774C11.0908 13.9703 10.6159 13.9703 10.323 13.6774C10.0301 13.3845 10.0301 12.9096 10.323 12.6167L10.8534 13.1471L11.3837 13.6774ZM18.5 11.6176H17.75V5.5H18.5H19.25V11.6176H18.5ZM18.5 5.5V6.25H12.3827V5.5V4.75H18.5V5.5ZM18.5 5.5L19.0303 6.03032L11.3837 13.6774L10.8534 13.1471L10.323 12.6167L17.9697 4.96968L18.5 5.5Z" fill="#A8DBAB"/>
<path d="M17.7349 14.6764C17.7349 15.4419 17.7349 15.8246 17.6654 16.1417C17.4148 17.2861 16.521 18.1799 15.3767 18.4305C15.0595 18.4999 14.6768 18.4999 13.9113 18.4999H11.5002C8.67181 18.4999 7.2576 18.4999 6.37892 17.6213C5.50024 16.7426 5.50024 15.3284 5.50024 12.4999V10.088C5.50024 9.32271 5.50024 8.94007 5.56966 8.62301C5.82024 7.47854 6.71413 6.58465 7.8586 6.33407C8.17566 6.26465 8.55829 6.26465 9.32356 6.26465" stroke="#A8DBAB" stroke-width="1.5" stroke-linecap="round"/>
</svg>
