<svg width="64" height="64" viewBox="0 0 64 64" fill="none" xmlns="http://www.w3.org/2000/svg">
<rect width="64" height="64" rx="32" fill="#042026"/>
<path d="M23.4406 28.7818C20.7578 30.0892 18.9092 32.8426 18.9092 36.0279C18.9092 40.477 22.5159 44.0838 26.9651 44.0838C31.4143 44.0838 35.0211 40.477 35.0211 36.0279C35.0211 35.6868 34.9999 35.3508 34.9587 35.0209M32.5036 42.6895C33.7947 43.5694 35.3548 44.0838 37.0351 44.0838C41.4842 44.0838 45.091 40.4771 45.091 36.0279C45.091 32.5669 42.9085 29.6157 39.8447 28.4755M40.056 27.972C40.056 32.4211 36.4493 36.0279 32.0001 36.0279C27.5509 36.0279 23.9441 32.4211 23.9441 27.972C23.9441 23.5228 27.5509 19.916 32.0001 19.916C36.4493 19.916 40.056 23.5228 40.056 27.972Z" stroke="#E9E9E9" stroke-width="2.18182"/>
</svg>
