<svg width="191" height="63" viewBox="0 0 191 63" fill="none" xmlns="http://www.w3.org/2000/svg">
<path d="M147.746 25.5959V42.4011C148.128 42.6239 148.764 42.7194 149.751 42.7194C150.769 42.7194 151.406 42.6239 151.788 42.4011V25.5959C151.406 25.3731 150.769 25.2776 149.751 25.2776C148.764 25.2776 148.128 25.3731 147.746 25.5959ZM70.4992 27.8557C73.4273 27.8557 74.1276 30.0836 73.8729 32.1843H66.1387C66.2979 29.5744 67.8893 27.8557 70.4992 27.8557ZM61.9692 34.1895C61.9692 39.7912 65.1839 43.3241 71.0721 43.3241C73.4592 43.3241 75.3689 42.7194 76.4828 42.051C77.1512 41.3508 77.5968 39.7912 77.5013 38.6772C76.1964 39.3456 74.2867 39.9185 72.0269 39.9185C68.3985 39.9185 66.2979 38.4862 66.1069 35.3034H77.3422C77.6605 34.3486 77.7878 33.2665 77.7878 32.1525C77.7878 27.7602 75.4962 24.6729 70.6265 24.6729C65.2794 24.6729 61.9692 28.5241 61.9692 34.1895ZM85.1719 27.8239H84.9491L84.6945 25.0866C83.3577 25.0866 82.1801 25.3094 81.4162 25.7232V42.4329C81.7981 42.6557 82.4347 42.7512 83.4213 42.7512C84.4398 42.7512 85.0764 42.6557 85.4583 42.4329V30.7839C86.1267 29.5426 87.3998 28.4286 89.596 28.4286C92.1104 28.4286 92.8424 29.8609 92.8424 32.1843V42.4329C93.2244 42.6557 93.8609 42.7512 94.8476 42.7512C95.8661 42.7512 96.5027 42.6557 96.8846 42.4329V31.4204C96.8846 25.6914 93.7336 24.7365 91.0282 24.7365C87.7818 24.6729 85.9676 26.0733 85.1719 27.8239ZM100.131 34.1895C100.131 39.8549 103.123 43.3241 108.597 43.3241C110.602 43.3241 112.226 42.8785 113.34 42.2738C114.072 41.4781 114.581 39.6639 114.422 38.5181C113.117 39.2183 111.653 39.6957 109.87 39.6957C106.465 39.6957 104.237 37.9133 104.237 33.9667C104.237 30.02 106.433 28.3013 109.839 28.3013C111.494 28.3013 112.735 28.6832 114.04 29.4789C114.263 28.2695 113.944 26.5507 113.34 25.755C112.353 25.1185 110.793 24.7684 109.043 24.7684C103.982 24.6729 100.131 27.6647 100.131 34.1895ZM159.84 27.8239H159.618L159.363 25.0866C158.026 25.0866 156.849 25.3094 156.085 25.7232V42.4329C156.467 42.6557 157.103 42.7512 158.09 42.7512C159.108 42.7512 159.745 42.6557 160.127 42.4329V30.7839C160.795 29.5426 162.068 28.4286 164.233 28.4286C166.747 28.4286 167.479 29.8609 167.479 32.1843V42.4329C167.861 42.6557 168.498 42.7512 169.484 42.7512C170.503 42.7512 171.139 42.6557 171.521 42.4329V31.4204C171.521 25.6914 168.402 24.7365 165.665 24.7365C162.45 24.6729 160.668 26.0733 159.84 27.8239ZM179.001 33.8075C179.001 30.3701 180.656 28.0148 184.38 28.0148C185.494 28.0148 186.29 28.2376 186.958 28.5559V36.863C186.258 37.977 185.112 38.9 183.234 38.9C180.561 38.9 179.001 37.1495 179.001 33.8075ZM174.863 34.2213C174.863 39.8867 177.823 42.5284 181.929 42.5284C184.507 42.5284 186.162 41.5099 187.085 39.9503H187.308C187.085 40.7779 186.926 42.2101 186.926 43.2605C186.926 46.3796 185.748 48.0028 182.279 48.0028C180.401 48.0028 178.11 47.4618 175.914 46.2523C175.532 47.4618 175.691 49.276 176.455 50.3899C178.237 51.2493 180.688 51.6631 182.757 51.6631C189.377 51.6631 191 47.7482 191 42.4966V26.4553C189.09 25.2458 187.053 24.6411 184.475 24.6411C178.46 24.6729 174.863 27.9512 174.863 34.2213ZM44.7821 39.0592V31.675H49.0152C52.7073 31.675 54.9989 32.8845 54.9989 35.4944C54.9989 38.1361 52.6755 39.2501 48.7606 39.2501C47.2965 39.2183 45.8324 39.1546 44.7821 39.0592ZM44.7821 21.3309C45.7051 21.14 46.7236 21.0763 47.9967 21.0763C51.5297 21.0763 53.7258 22.1266 53.7258 24.6411C53.7258 26.9327 51.8798 28.0467 48.9834 28.0467H44.7821V21.3309ZM40.5808 18.1481V42.4966C42.8406 42.7512 45.9279 42.8467 48.8879 42.8467C54.7761 42.8467 59.3275 40.8415 59.3275 35.5581C59.3275 32.1206 57.3542 30.4019 54.3942 29.6381V29.4153C56.5903 28.8105 58.0226 26.869 58.0226 24.1C58.0226 19.2939 53.7894 17.4797 47.9013 17.4797C45.1322 17.4797 42.7451 17.7662 40.5808 18.1481ZM147.237 19.5486C147.237 21.14 148.16 22.063 149.751 22.063C151.279 22.063 152.297 21.1718 152.297 19.5167C152.297 17.8617 151.311 16.9387 149.783 16.9387C148.255 16.9387 147.237 17.8617 147.237 19.5486ZM117.605 17.3843V42.4011C117.987 42.6239 118.623 42.7194 119.61 42.7194C120.628 42.7194 121.265 42.6239 121.647 42.4011V30.752C122.347 29.4789 123.62 28.3968 125.88 28.3968C128.426 28.3968 129.19 29.7972 129.19 32.1525V42.4011C129.572 42.6239 130.209 42.7194 131.195 42.7194C132.214 42.7194 132.85 42.6239 133.232 42.4011V31.3886C133.232 25.6596 130.018 24.7047 127.249 24.7047C123.875 24.7047 122.252 26.1051 121.456 27.7284H121.265C121.52 26.3598 121.647 24.8002 121.647 22.8587V16.5567C119.769 16.5249 118.528 16.8114 117.605 17.3843ZM137.434 17.3843V38.5499C137.434 41.5099 138.548 43.2923 141.476 43.2923C142.653 43.2923 143.64 43.0058 144.308 42.5921C144.945 41.86 145.359 40.2368 145.168 38.9955C144.563 39.4093 143.799 39.6639 142.972 39.6639C142.049 39.6639 141.508 39.3774 141.508 37.9452V16.5249C139.598 16.5249 138.357 16.8114 137.434 17.3843Z" fill="#E9E9E9"/>
<path d="M10.8215 43.1013C10.3123 43.5469 9.96218 44.0243 9.80304 44.5972H15.6594C15.4684 44.0561 15.1501 43.5469 14.6409 43.1013H10.8215ZM16.2641 40.2368C15.7549 40.555 15.182 40.8415 14.5772 41.0961L14.4499 41.1598L14.5772 41.2234C16.3596 42.3056 17.2508 43.706 17.2508 45.5521C17.2508 46.0613 17.6646 46.4751 18.1738 46.4751C18.6831 46.4751 19.0968 46.0613 19.0968 45.5521C19.0968 43.3877 18.1738 41.5735 16.3596 40.2049L16.3278 40.1731L16.2641 40.2368ZM9.77121 34.3486C9.96217 34.9215 10.2805 35.3989 10.7897 35.8445H14.5772C15.0865 35.3989 15.4048 34.9215 15.5957 34.3486H9.77121ZM10.8215 30.7202C10.3123 31.1658 9.96218 31.6432 9.80304 32.2161H15.6594C15.4684 31.675 15.1501 31.1658 14.6409 30.7202H10.8215ZM6.39743 20.758C6.39743 20.1533 6.87486 19.6759 7.47959 19.6759C8.08432 19.6759 8.56174 20.1533 8.56174 20.758C8.56174 21.3627 8.08432 21.8402 7.47959 21.8402C6.87486 21.8402 6.39743 21.3309 6.39743 20.758ZM16.837 20.758C16.837 20.1533 17.3145 19.6759 17.9192 19.6759C18.5239 19.6759 19.0013 20.1533 19.0013 20.758C19.0013 21.3627 18.5239 21.8402 17.9192 21.8402C17.3145 21.8402 16.837 21.3309 16.837 20.758ZM2.32345 20.2169C2.22796 20.6307 2.13248 21.0126 2.03699 21.2036C1.33678 23.0178 0.413765 23.8453 0.413765 23.8772C0.190969 24.0045 0.031828 24.2591 0 24.5137V24.7365C0 24.7683 0 24.8002 0 24.832C0.0954841 25.1821 0.381934 25.4686 0.763871 25.5004C5.63356 25.946 8.37077 26.6462 10.185 27.1554C7.63873 28.5877 6.33378 30.6247 6.33378 33.2346C6.33378 35.9082 7.70238 37.977 10.3759 39.4092C7.70238 40.8415 6.33378 42.9422 6.33378 45.5839C6.33378 46.0931 6.74754 46.5069 7.25679 46.5069C7.76604 46.5069 8.1798 46.0931 8.1798 45.5839C8.1798 42.4329 10.7579 41.0961 12.6994 40.3641C12.7949 40.3322 12.8904 40.3004 12.9858 40.2686C13.6542 40.014 14.2908 39.7593 14.8637 39.4729C17.6327 38.0406 19.0332 35.94 19.0332 33.2028C19.0332 31.1976 18.2375 29.4789 16.6779 28.1421L16.6461 28.1103H16.6142C15.8504 28.3013 15.1501 28.4922 14.5454 28.6832L14.3863 28.7468L14.5454 28.8423C16.3278 29.9245 17.1871 31.3249 17.1871 33.1709C17.1871 36.3219 14.6091 37.6587 12.6676 38.3589C10.726 37.6269 8.14798 36.3219 8.14798 33.1709C8.14798 30.02 10.726 28.6832 12.6676 27.9511L12.7949 27.9193C13.2405 27.7284 13.877 27.4737 15.0228 27.1554C16.8689 26.6144 19.6061 25.9141 24.6349 25.4367C25.0168 25.4049 25.3033 25.1503 25.3988 24.7683C25.4943 24.4182 25.3351 24.0363 25.0168 23.8453C25.0168 23.8453 24.0938 22.986 23.3936 21.1718C23.2981 20.949 23.2345 20.5989 23.1072 20.1851C22.4388 17.5434 20.8474 11.3369 12.7312 11.3369C4.58324 11.3687 2.99184 17.5752 2.32345 20.2169Z" fill="#E9E9E9"/>
</svg>
