<svg width="64" height="64" viewBox="0 0 64 64" fill="none" xmlns="http://www.w3.org/2000/svg">
<rect width="64" height="64" rx="32" fill="#042026"/>
<g transform="translate(16.0986, 16.6819)">
<path d="M2.18183 19.8991C2.18183 20.5016 1.69342 20.9901 1.09092 20.9901C0.488432 20.9901 1.58918e-05 20.5016 1.59182e-05 19.8991L1.61049e-05 15.6506C1.61314e-05 15.0481 0.488433 14.5597 1.09093 14.5597C1.69342 14.5597 2.18183 15.0481 2.18183 15.6506L2.18183 19.8991Z" fill="#E9E9E9"/>
<path d="M31.8029 19.8991C31.8029 20.5016 31.3144 20.9901 30.7119 20.9901C30.1095 20.9901 29.621 20.5016 29.621 19.8991L29.621 15.6506C29.621 15.0481 30.1095 14.5597 30.7119 14.5597C31.3144 14.5597 31.8029 15.0481 31.8029 15.6506L31.8029 19.8991Z" fill="#E9E9E9"/>
<path d="M17.2574 6.52273L15.0756 6.52273L15.0756 3.30682L17.2574 3.30682L17.2574 6.52273Z" fill="#E9E9E9"/>
<rect x="4.854" y="7.61222" width="22.0607" height="21.9332" rx="1.81818" stroke="#E9E9E9" stroke-width="2.18182"/>
<path d="M16.1796 0.727539C17.1948 0.727539 18.0117 1.54536 18.0117 2.5459C18.0114 3.54624 17.1947 4.36328 16.1796 4.36328C15.1647 4.36311 14.3488 3.54613 14.3486 2.5459C14.3486 1.54547 15.1646 0.727715 16.1796 0.727539Z" fill="#E9E9E9" stroke="#E9E9E9" stroke-width="1.45455"/>
<circle cx="20.7321" cy="16.9711" r="1.6906" fill="#E9E9E9" stroke="#E9E9E9" stroke-width="1.45455"/>
<circle cx="11.0332" cy="16.9711" r="1.6906" fill="#E9E9E9" stroke="#E9E9E9" stroke-width="1.45455"/>
</g>
</svg>
