<svg width="50" height="50" viewBox="0 0 50 50" fill="none" xmlns="http://www.w3.org/2000/svg">
<rect width="50" height="50" rx="25" fill="#042026"/>
<path d="M21.1646 14.7281C22.972 14.6972 24.865 14.7278 26.68 14.7268C27.1191 14.7257 27.5582 14.7271 27.9973 14.731C28.2151 14.733 28.6046 14.7486 28.8072 14.7197C28.4984 15.2831 28.191 15.9136 27.8966 16.4889L26.3538 19.4951L25.2079 21.7235C25.0042 22.1193 24.7984 22.5144 24.6012 22.9136C24.5427 23.0296 24.5633 23.2331 24.6601 23.3226C24.8603 23.5076 25.3635 23.4514 25.6262 23.4509L26.8472 23.4489C28.1239 23.4495 29.4407 23.4677 30.7143 23.4463C28.5895 25.6723 26.343 27.9079 24.1857 30.1095C22.803 31.4848 21.4615 32.9128 20.079 34.2897C19.7638 34.6036 19.4092 34.9456 19.1271 35.2857C19.3165 34.8038 19.4974 34.2434 19.6731 33.7488L20.5915 31.1949L21.4708 28.7573C21.6088 28.3741 21.7505 27.991 21.8842 27.6061C21.9903 27.3009 21.9542 27.1988 21.7007 27.0152C21.4152 26.9632 20.7258 26.9805 20.4014 26.9808L18.1428 26.9791L20.1435 18.3585L20.6692 16.0713C20.7464 15.7314 20.8796 15.0713 20.9917 14.7663C21.0543 14.7163 21.0675 14.7328 21.1646 14.7281Z" stroke="#E9E9E9" stroke-width="1.71429" stroke-linejoin="round"/>
</svg>
