<svg width="50" height="50" viewBox="0 0 50 50" fill="none" xmlns="http://www.w3.org/2000/svg">
<rect width="50" height="50" rx="25" fill="#042026"/>
<path d="M27.6429 16.4286V23.5826C27.6429 23.8082 27.7097 24.0288 27.8349 24.2165L32.8869 31.7946C33.3933 32.5541 32.8488 33.5714 31.936 33.5714H16.9212C16.0084 33.5714 15.464 32.5541 15.9703 31.7946L21.0224 24.2165C21.1476 24.0288 21.2143 23.8082 21.2143 23.5826V16.4286" stroke="#E9E9E9" stroke-width="1.71429" stroke-linejoin="round"/>
<path d="M19.0715 16.4286H29.7858" stroke="#E9E9E9" stroke-width="1.71429" stroke-linecap="round" stroke-linejoin="round"/>
<path d="M19.0715 27.1429C19.0715 27.1429 20.6833 26.6072 21.7501 26.6072C22.8169 26.6072 23.3826 26.9337 24.4287 27.1429C25.4747 27.3521 26.0405 27.6786 27.1072 27.6786C28.174 27.6786 29.7858 27.1429 29.7858 27.1429" stroke="#E9E9E9" stroke-width="1.71429" stroke-linecap="round" stroke-linejoin="round"/>
</svg>
