<svg width="218" height="80" viewBox="0 0 218 80" fill="none" xmlns="http://www.w3.org/2000/svg">
<path d="M140.791 59.0941L142.379 55.1973H143.519L140.404 62.6264H139.306L140.262 60.3236L137.921 55.1973H139.082L140.791 59.0941ZM132.618 55.9891C133.046 55.3709 133.656 55.0618 134.45 55.0618C135.176 55.0618 135.783 55.3259 136.272 55.8536C136.76 56.3745 137.004 57.0277 137.004 57.8127C137.004 58.6045 136.76 59.2641 136.272 59.7918C135.783 60.3132 135.176 60.5736 134.45 60.5736C133.656 60.5736 133.046 60.2645 132.618 59.6464V60.4382H131.55V52.8323H132.618V55.9891ZM151.703 53.0095C152.558 53.0095 153.284 53.2314 153.881 53.6759C154.485 54.1136 154.889 54.6518 155.092 55.2909L154.024 55.5623C153.868 55.1314 153.583 54.7736 153.169 54.4886C152.755 54.2041 152.267 54.0614 151.703 54.0614C150.937 54.0614 150.313 54.3255 149.831 54.8532C149.356 55.3741 149.119 56.0132 149.119 56.7705C149.119 57.5345 149.356 58.1841 149.831 58.7191C150.313 59.2468 150.937 59.5109 151.703 59.5109C152.267 59.5109 152.755 59.3723 153.169 59.0941C153.583 58.8164 153.864 58.4623 154.014 58.0314L155.082 58.3127C154.878 58.9445 154.478 59.4795 153.881 59.9173C153.284 60.355 152.561 60.5736 151.714 60.5736C150.655 60.5736 149.77 60.2127 149.058 59.49C148.352 58.7609 148 57.8577 148 56.7809C148 55.7045 148.352 54.8082 149.058 54.0927C149.763 53.3705 150.645 53.0095 151.703 53.0095ZM159.178 55.0618C159.985 55.0618 160.62 55.3155 161.081 55.8223C161.549 56.3223 161.783 56.9545 161.783 57.7186C161.783 57.8505 161.773 57.9964 161.753 58.1564H157.591C157.625 58.6009 157.791 58.9586 158.089 59.2295C158.388 59.5005 158.788 59.6359 159.29 59.6359C159.996 59.6359 160.481 59.3545 160.745 58.7918L161.723 59.0836C161.539 59.4936 161.237 59.8441 160.816 60.1359C160.396 60.4277 159.88 60.5736 159.27 60.5736C158.463 60.5736 157.804 60.32 157.296 59.8127C156.794 59.3059 156.543 58.6427 156.543 57.8227C156.543 57.0309 156.787 56.375 157.275 55.8536C157.764 55.3259 158.398 55.0618 159.178 55.0618ZM172.866 55.0618C173.673 55.0618 174.307 55.3155 174.769 55.8223C175.237 56.3223 175.471 56.9545 175.471 57.7186C175.471 57.8505 175.461 57.9964 175.441 58.1564H171.278C171.312 58.6009 171.478 58.9586 171.777 59.2295C172.076 59.5005 172.476 59.6359 172.978 59.6359C173.684 59.6359 174.169 59.3545 174.433 58.7918L175.41 59.0836C175.227 59.4936 174.925 59.8441 174.504 60.1359C174.084 60.4277 173.568 60.5736 172.957 60.5736C172.15 60.5736 171.492 60.32 170.984 59.8127C170.481 59.3059 170.231 58.6427 170.231 57.8227C170.231 57.0309 170.475 56.375 170.963 55.8536C171.451 55.3259 172.086 55.0618 172.866 55.0618ZM185.631 55.0618C186.412 55.0618 187.06 55.3259 187.575 55.8536C188.091 56.3745 188.348 57.0277 188.348 57.8127C188.348 58.6045 188.091 59.2641 187.575 59.7918C187.06 60.3132 186.412 60.5736 185.631 60.5736C184.851 60.5736 184.203 60.3132 183.688 59.7918C183.172 59.2641 182.914 58.6045 182.914 57.8127C182.914 57.0277 183.172 56.375 183.688 55.8536C184.203 55.3259 184.851 55.0618 185.631 55.0618ZM166.422 55.0618C167.073 55.0618 167.575 55.2668 167.927 55.6768C168.28 56.0864 168.457 56.6491 168.457 57.3645V60.4382H167.399V57.5623C167.399 57.0968 167.29 56.7359 167.072 56.4786C166.862 56.215 166.55 56.0827 166.137 56.0827C165.689 56.0827 165.33 56.2427 165.058 56.5623C164.793 56.8818 164.661 57.3055 164.661 57.8336V60.4382H163.593V55.1973H164.661V55.9786C165.081 55.3673 165.669 55.0618 166.422 55.0618ZM179.149 59.2505L180.757 55.1973H181.917L179.749 60.4382H178.559L176.391 55.1973H177.551L179.149 59.2505ZM134.277 56.0414C133.802 56.0414 133.402 56.2114 133.076 56.5518C132.75 56.885 132.587 57.3055 132.587 57.8127C132.587 58.3268 132.75 58.7541 133.076 59.0941C133.402 59.4277 133.802 59.5941 134.277 59.5941C134.765 59.5941 135.166 59.4277 135.478 59.0941C135.79 58.7541 135.945 58.3268 135.945 57.8127C135.945 57.2986 135.79 56.875 135.478 56.5414C135.166 56.2082 134.765 56.0414 134.277 56.0414ZM185.631 56.0518C185.143 56.0518 184.739 56.2218 184.421 56.5623C184.108 56.8959 183.952 57.3159 183.952 57.8227C183.952 58.3232 184.108 58.7432 184.421 59.0836C184.739 59.4168 185.143 59.5836 185.631 59.5836C186.119 59.5836 186.52 59.4168 186.832 59.0836C187.151 58.7432 187.31 58.3232 187.31 57.8227C187.31 57.3159 187.151 56.8959 186.832 56.5623C186.52 56.2218 186.119 56.0518 185.631 56.0518ZM159.178 55.9995C158.737 55.9995 158.371 56.1386 158.079 56.4164C157.794 56.6941 157.632 57.0309 157.591 57.4268L160.735 57.4168C160.701 57 160.545 56.6595 160.267 56.3955C159.996 56.1314 159.632 55.9995 159.178 55.9995ZM172.866 55.9995C172.425 55.9995 172.059 56.1386 171.767 56.4164C171.482 56.6941 171.319 57.0309 171.278 57.4268L174.423 57.4168C174.389 57 174.233 56.6595 173.955 56.3955C173.684 56.1314 173.32 55.9995 172.866 55.9995Z" fill="white"/>
<path d="M75.5447 43.182V21.9858H78.5221V43.182H75.5447ZM90.4076 43.5595C88.3846 43.5595 86.6928 42.8336 85.3317 41.3818C83.9892 39.9107 83.318 38.0717 83.318 35.865C83.318 33.6776 83.9892 31.858 85.3317 30.4062C86.6928 28.9351 88.3846 28.1995 90.4076 28.1995C92.6384 28.1995 94.3494 29.0609 95.5404 30.7837V28.577H98.4899V43.182H95.5404V40.9753C94.3494 42.6981 92.6384 43.5595 90.4076 43.5595ZM90.8898 40.8301C92.2131 40.8301 93.3287 40.3655 94.2361 39.4364C95.1436 38.4879 95.5973 37.2974 95.5973 35.865C95.5973 34.4519 95.1436 33.2808 94.2361 32.3517C93.3287 31.4032 92.2131 30.9289 90.8898 30.9289C89.5287 30.9289 88.413 31.3935 87.5434 32.3226C86.6737 33.2517 86.2391 34.4326 86.2391 35.865C86.2391 37.2974 86.6737 38.4879 87.5434 39.4364C88.413 40.3655 89.5287 40.8301 90.8898 40.8301ZM112.231 28.1995C114.254 28.1995 115.946 28.9351 117.307 30.4062C118.668 31.858 119.349 33.6776 119.349 35.865C119.349 38.0717 118.668 39.9107 117.307 41.3818C115.946 42.8336 114.254 43.5595 112.231 43.5595C110.019 43.5595 108.317 42.6981 107.126 40.9753V43.182H104.149V21.9858H107.126V30.7837C108.317 29.0609 110.019 28.1995 112.231 28.1995ZM111.749 40.8301C113.11 40.8301 114.225 40.3655 115.095 39.4364C115.965 38.4879 116.4 37.2974 116.4 35.865C116.4 34.4326 115.965 33.2517 115.095 32.3226C114.225 31.3935 113.11 30.9289 111.749 30.9289C110.425 30.9289 109.31 31.4032 108.403 32.3517C107.495 33.2808 107.041 34.4519 107.041 35.865C107.041 37.2974 107.495 38.4879 108.403 39.4364C109.31 40.3655 110.425 40.8301 111.749 40.8301ZM135.358 28.577H138.336V42.6594C138.336 44.7112 137.665 46.3857 136.323 47.6825C134.999 48.9988 133.26 49.657 131.105 49.657C127.947 49.657 125.679 48.3893 124.299 45.8534L126.908 44.8661C127.777 46.3566 129.195 47.102 131.161 47.102C132.485 47.102 133.506 46.6857 134.224 45.8534C134.961 45.0403 135.339 43.9853 135.358 42.6884V40.5397C134.167 42.1851 132.494 43.0078 130.339 43.0078C128.278 43.0078 126.577 42.3012 125.234 40.8882C123.892 39.4751 123.221 37.7136 123.221 35.6037C123.221 33.4357 123.883 31.6645 125.206 30.2901C126.548 28.8964 128.259 28.1995 130.339 28.1995C132.494 28.1995 134.167 29.0125 135.358 30.6385V28.577ZM130.793 40.2784C132.116 40.2784 133.222 39.8332 134.11 38.9428C134.999 38.0523 135.444 36.9393 135.444 35.6037C135.444 34.268 134.999 33.1647 134.11 32.2936C133.222 31.4032 132.116 30.9579 130.793 30.9579C129.431 30.9579 128.316 31.3935 127.447 32.2645C126.577 33.1356 126.142 34.2487 126.142 35.6037C126.142 36.9587 126.577 38.0814 127.447 38.9718C128.316 39.8429 129.431 40.2784 130.793 40.2784ZM154.461 28.577H157.41V43.182H154.461V40.9753C153.307 42.6981 151.662 43.5595 149.526 43.5595C147.73 43.5595 146.331 42.9884 145.329 41.8464C144.346 40.7043 143.854 39.1363 143.854 37.1426V28.577H146.832V36.5909C146.832 37.8878 147.125 38.9041 147.711 39.6397C148.316 40.3559 149.195 40.714 150.348 40.714C151.578 40.714 152.57 40.2687 153.326 39.3783C154.082 38.4879 154.461 37.3071 154.461 35.8359V28.577ZM166.067 30.8998C166.502 29.9901 167.135 29.3126 167.967 28.8673C168.818 28.4028 169.81 28.2479 170.944 28.4028V31.2483C169.375 31.016 168.165 31.3354 167.315 32.2065C166.483 33.0582 166.067 34.5197 166.067 36.5909V43.182H163.089V28.577H166.067V30.8998ZM185.668 28.577H188.617V43.182H185.668V40.9753C184.515 42.6981 182.87 43.5595 180.734 43.5595C178.937 43.5595 177.539 42.9884 176.537 41.8464C175.553 40.7043 175.062 39.1363 175.062 37.1426V28.577H178.039V36.5909C178.039 37.8878 178.332 38.9041 178.918 39.6397C179.523 40.3559 180.402 40.714 181.556 40.714C182.784 40.714 183.777 40.2687 184.533 39.3783C185.29 38.4879 185.668 37.3071 185.668 35.8359V28.577Z" fill="white"/>
<path d="M55.6837 46.5453C53.2324 49.0553 50.1093 50.7644 46.7093 51.4571C43.3093 52.1494 39.785 51.7939 36.5823 50.4358C33.3795 49.0776 30.6421 46.7771 28.7162 43.8259C26.7902 40.8746 25.7622 37.4048 25.7622 33.8554C25.7622 30.3059 26.7902 26.8361 28.7162 23.8849C30.6421 20.9336 33.3795 18.6334 36.5823 17.275C39.785 15.9167 43.3093 15.5613 46.7093 16.2538C50.1093 16.9463 53.2324 18.6555 55.6837 21.1653L43.2898 33.8554L55.6837 46.5453Z" fill="url(#paint0_linear_2648_2136)"/>
<path d="M51.221 41.9764C49.6523 43.5827 47.6536 44.6765 45.4777 45.1197C43.3018 45.5628 41.0464 45.3354 38.9968 44.4661C36.9471 43.5968 35.1952 42.1248 33.9627 40.236C32.7301 38.3473 32.0723 36.1268 32.0723 33.8553C32.0723 31.5837 32.7301 29.3632 33.9627 27.4744C35.1952 25.5858 36.9471 24.1137 38.9968 23.2444C41.0464 22.3751 43.3018 22.1477 45.4777 22.5908C47.6536 23.034 49.6523 24.1278 51.221 25.734L43.2894 33.8553L51.221 41.9764Z" fill="#0A30AD"/>
<path d="M56.4511 26.438C56.2208 30.1755 53.4637 33.2128 49.9111 33.765C53.4637 34.3172 56.2208 37.3545 56.4511 41.092C56.681 37.3545 59.4379 34.3172 62.9907 33.765C59.4379 33.2128 56.681 30.1755 56.4511 26.438Z" fill="#0A30AD"/>
<defs>
<linearGradient id="paint0_linear_2648_2136" x1="41.5518" y1="15.1904" x2="40.8162" y2="51.8346" gradientUnits="userSpaceOnUse">
<stop stop-color="#7E68FA"/>
<stop offset="1" stop-color="#2D60FC"/>
</linearGradient>
</defs>
</svg>
