<svg width="64" height="64" viewBox="0 0 64 64" fill="none" xmlns="http://www.w3.org/2000/svg">
<rect width="64" height="64" rx="32" fill="#042026"/>
<path d="M40.7021 35.0175L40.7021 45.5592" stroke="#E9E9E9" stroke-width="2.18182" stroke-linejoin="round"/>
<line x1="38.3597" y1="44.8074" x2="42.9564" y2="44.8074" stroke="#E9E9E9" stroke-width="2.18182" stroke-linecap="round" stroke-linejoin="round"/>
<path d="M36.0564 24.7261C39.7494 25.2347 40.4499 23.3527 45.1635 24.7261" stroke="#E9E9E9" stroke-width="2.18182" stroke-linejoin="round"/>
<path d="M44.9922 19.1923C44.9411 22.462 44.6549 26.2925 43.9072 29.3182C43.5171 30.8969 43.0228 32.1708 42.4326 33.0253C41.853 33.8643 41.2814 34.1717 40.7012 34.1718C40.1209 34.1718 39.5494 33.8644 38.9697 33.0253C38.3795 32.1708 37.8843 30.897 37.4941 29.3182C36.7465 26.2925 36.4603 22.462 36.4092 19.1923H44.9922Z" stroke="#E9E9E9" stroke-width="2.18182" stroke-linejoin="round"/>
<path d="M36.8144 38.6256H20.0063C18.8459 38.6256 17.9053 37.7586 17.9053 36.689V25.5205C17.9053 25.1026 18.1247 24.7106 18.4942 24.4684L27.5986 18.5009C28.0846 18.1823 28.7361 18.1823 29.222 18.5009L32.7277 20.3635" stroke="#E9E9E9" stroke-width="2.18182" stroke-linecap="round"/>
</svg>
