<svg width="64" height="64" viewBox="0 0 64 64" fill="none" xmlns="http://www.w3.org/2000/svg">
<rect width="64" height="64" rx="32" fill="#042026"/>
<rect x="19.948" y="20.749" width="9.14286" height="9.14286" rx="1.87013" stroke="#E9E9E9" stroke-width="1.87013" stroke-linejoin="round"/>
<circle cx="24.5194" cy="39.1387" r="4.36364" stroke="#E9E9E9" stroke-width="1.87013" stroke-linejoin="round"/>
<path d="M38.8806 21.3495C39.2415 20.7309 40.1352 20.7309 40.496 21.3495L43.9589 27.2859C44.3226 27.9093 43.8729 28.6921 43.1512 28.6921H36.2254C35.5037 28.6921 35.0541 27.9093 35.4177 27.2859L38.8806 21.3495Z" stroke="#E9E9E9" stroke-width="1.87013" stroke-linejoin="round"/>
<path d="M39.6892 42.5769L43.1274 39.1387L39.6892 35.7004L36.2509 39.1387L39.6892 42.5769ZM45.1102 38.4777L45.2307 38.6244C45.4358 38.9353 45.4358 39.342 45.2307 39.653L45.1102 39.7996L40.3491 44.5607C40.0297 44.8799 39.5367 44.9205 39.1739 44.6812L39.0273 44.5607L34.2662 39.7996C33.9014 39.4345 33.9014 38.8429 34.2662 38.4777L39.0273 33.7166L39.1739 33.5961C39.5367 33.3568 40.0297 33.3975 40.3491 33.7166L45.1102 38.4777Z" fill="#E9E9E9"/>
</svg>
